# xmcd CD database file
#
# Track frame offsets:
#	150
#	14022
#	27441
#	46186
#	61045
#	75935
#	91565
#	108363
#	126656
#	148420
#	164285
#	183408
#	197010
#	212238
#
# Disc length: 3000 seconds
#
# Revision: 0
# Processed by: cddbd v1.4PL0 Copyright (c) Steve Scherf et al.
# Submitted via: CDex 1.50beta9
#
DISCID=bd0bb60e
DTITLE=Hugh McMonagle - What You Think Is Fair
DYEAR=1900
DGENRE=Country
TTITLE0=What You Think Is Fair
TTITLE1=Here I Am
TTITLE2=Irish Harvest Day
TTITLE3=Sugar Daddy
TTITLE4=Wine Into Water
TTITLE5=Running Bear
TTITLE6=Would You Be My Girl Forever
TTITLE7=Blow Out The Stars
TTITLE8=Dear Isish Mother
TTITLE9=The Lightning Express
TTITLE10=Somedays Are Diamonds
TTITLE11=Five Littl Fingers
TTITLE12=Blaze Of Glory
TTITLE13=Lonely Orphan Home
EXTD=
EXTT0=
EXTT1=
EXTT2=
EXTT3=
EXTT4=
EXTT5=
EXTT6=
EXTT7=
EXTT8=
EXTT9=
EXTT10=
EXTT11=
EXTT12=
EXTT13=
PLAYORDER=
